<svg width="1898" height="82" viewBox="0 0 1898 82" fill="none" xmlns="http://www.w3.org/2000/svg">
<path d="M0 60.092L0.581 55.693H22.908C23.6827 55.693 24.236 55.9143 24.568 56.357C24.9 56.7443 25.066 57.2147 25.066 57.768C25.066 58.3213 24.817 58.847 24.319 59.345C23.821 59.843 23.1847 60.092 22.41 60.092H0ZM22.3711 60.092L22.9521 55.693H45.2791C46.0538 55.693 46.6071 55.9143 46.9391 56.357C47.2711 56.7443 47.4371 57.2147 47.4371 57.768C47.4371 58.3213 47.1881 58.847 46.6901 59.345C46.1921 59.843 45.5558 60.092 44.7811 60.092H22.3711ZM44.7422 60.092L45.3232 55.693H67.6502C68.4249 55.693 68.9782 55.9143 69.3102 56.357C69.6422 56.7443 69.8082 57.2147 69.8082 57.768C69.8082 58.3213 69.5592 58.847 69.0612 59.345C68.5632 59.843 67.9269 60.092 67.1522 60.092H44.7422ZM67.1133 60.092L67.6943 55.693H90.0213C90.7959 55.693 91.3493 55.9143 91.6813 56.357C92.0133 56.7443 92.1793 57.2147 92.1793 57.768C92.1793 58.3213 91.9303 58.847 91.4323 59.345C90.9343 59.843 90.2979 60.092 89.5233 60.092H67.1133ZM95.4604 59.926L91.3934 58.183C92.832 55.029 94.2984 51.6537 95.7924 48.057C97.3417 44.4603 98.8357 40.753 100.274 36.935C101.768 33.117 103.152 29.299 104.424 25.481C105.752 21.663 106.942 17.9833 107.993 14.442C109.045 10.9007 109.875 7.60833 110.483 4.565L114.716 3.735L113.72 7.968C112.835 11.952 111.673 16.2403 110.234 20.833C108.851 25.4257 107.302 30.0737 105.586 34.777C103.926 39.4803 102.211 43.99 100.44 48.306C98.6697 52.622 97.0097 56.4953 95.4604 59.926ZM129.573 60.175C128.19 57.021 126.807 53.6733 125.423 50.132C124.095 46.5907 122.74 42.994 121.356 39.342C120.028 35.6347 118.756 31.955 117.538 28.303C116.376 24.651 115.297 21.1373 114.301 17.762C113.305 14.3867 112.448 11.2603 111.728 8.383L110.732 4.814L114.716 3.735C115.491 6.99967 116.376 10.458 117.372 14.11C118.424 17.762 119.586 21.5247 120.858 25.398C122.131 29.216 123.459 33.0617 124.842 36.935C126.226 40.753 127.664 44.488 129.158 48.14C130.652 51.792 132.146 55.2503 133.64 58.515L129.573 60.175ZM156.107 82.004C153.562 80.2333 151.404 77.8817 149.633 74.949C147.918 72.0717 146.59 68.973 145.649 65.653C144.764 62.333 144.266 59.2067 144.155 56.274C143.491 57.3807 142.412 58.2937 140.918 59.013C139.424 59.7323 137.626 60.092 135.523 60.092L136.021 55.693C136.63 55.693 137.349 55.61 138.179 55.444C139.009 55.278 139.867 54.9183 140.752 54.365C141.693 53.8117 142.578 52.9263 143.408 51.709C144.238 50.4917 144.902 48.8317 145.4 46.729L149.135 47.642C148.416 49.966 148.029 52.456 147.973 55.112C147.973 57.7127 148.278 60.3133 148.886 62.914C149.495 65.5147 150.38 67.9493 151.542 70.218C152.76 72.542 154.198 74.5063 155.858 76.111C155.748 72.0163 156.163 68.4473 157.103 65.404C158.044 62.3607 159.732 59.9813 162.166 58.266C164.656 56.5507 168.004 55.693 172.209 55.693C172.929 55.693 173.454 55.9143 173.786 56.357C174.174 56.7443 174.367 57.2147 174.367 57.768C174.367 58.3213 174.118 58.847 173.62 59.345C173.122 59.843 172.514 60.092 171.794 60.092C168.53 60.092 165.957 60.7283 164.075 62.001C162.249 63.329 160.949 65.3763 160.174 68.143C159.455 70.965 159.178 74.617 159.344 79.099L156.107 82.004ZM171.674 60.092L172.255 55.693H194.582C195.356 55.693 195.91 55.9143 196.242 56.357C196.574 56.7443 196.74 57.2147 196.74 57.768C196.74 58.3213 196.491 58.847 195.993 59.345C195.495 59.843 194.858 60.092 194.084 60.092H171.674ZM194.045 60.092L194.626 55.693H216.953C217.728 55.693 218.281 55.9143 218.613 56.357C218.945 56.7443 219.111 57.2147 219.111 57.768C219.111 58.3213 218.862 58.847 218.364 59.345C217.866 59.843 217.23 60.092 216.455 60.092H194.045ZM216.416 60.092L216.997 55.693H239.324C240.099 55.693 240.652 55.9143 240.984 56.357C241.316 56.7443 241.482 57.2147 241.482 57.768C241.482 58.3213 241.233 58.847 240.735 59.345C240.237 59.843 239.601 60.092 238.826 60.092H216.416ZM238.787 60.092L239.368 55.693H261.695C262.47 55.693 263.023 55.9143 263.355 56.357C263.687 56.7443 263.853 57.2147 263.853 57.768C263.853 58.3213 263.604 58.847 263.106 59.345C262.608 59.843 261.972 60.092 261.197 60.092H238.787ZM261.158 60.092L261.739 55.693H284.066C284.841 55.693 285.394 55.9143 285.726 56.357C286.058 56.7443 286.224 57.2147 286.224 57.768C286.224 58.3213 285.975 58.847 285.477 59.345C284.979 59.843 284.343 60.092 283.568 60.092H261.158ZM283.529 60.092L284.11 55.693H306.437C307.212 55.693 307.765 55.9143 308.097 56.357C308.429 56.7443 308.595 57.2147 308.595 57.768C308.595 58.3213 308.346 58.847 307.848 59.345C307.35 59.843 306.714 60.092 305.939 60.092H283.529ZM305.9 60.092L306.481 55.693H328.808C329.583 55.693 330.136 55.9143 330.468 56.357C330.8 56.7443 330.966 57.2147 330.966 57.768C330.966 58.3213 330.717 58.847 330.219 59.345C329.721 59.843 329.085 60.092 328.31 60.092H305.9ZM328.271 60.092L328.852 55.693H351.179C351.954 55.693 352.507 55.9143 352.839 56.357C353.171 56.7443 353.337 57.2147 353.337 57.768C353.337 58.3213 353.088 58.847 352.59 59.345C352.092 59.843 351.456 60.092 350.681 60.092H328.271ZM350.643 60.092L351.224 55.693H373.551C374.325 55.693 374.879 55.9143 375.211 56.357C375.543 56.7443 375.709 57.2147 375.709 57.768C375.709 58.3213 375.46 58.847 374.962 59.345C374.464 59.843 373.827 60.092 373.053 60.092H350.643ZM373.014 60.092L373.595 55.693H395.922C396.696 55.693 397.25 55.9143 397.582 56.357C397.914 56.7443 398.08 57.2147 398.08 57.768C398.08 58.3213 397.831 58.847 397.333 59.345C396.835 59.843 396.198 60.092 395.424 60.092H373.014ZM395.385 60.092L395.966 55.693H418.293C419.067 55.693 419.621 55.9143 419.953 56.357C420.285 56.7443 420.451 57.2147 420.451 57.768C420.451 58.3213 420.202 58.847 419.704 59.345C419.206 59.843 418.569 60.092 417.795 60.092H395.385ZM417.756 60.092L418.337 55.693H440.664C441.439 55.693 441.992 55.9143 442.324 56.357C442.656 56.7443 442.822 57.2147 442.822 57.768C442.822 58.3213 442.573 58.847 442.075 59.345C441.577 59.843 440.941 60.092 440.166 60.092H417.756ZM440.127 60.092L440.708 55.693H463.035C463.81 55.693 464.363 55.9143 464.695 56.357C465.027 56.7443 465.193 57.2147 465.193 57.768C465.193 58.3213 464.944 58.847 464.446 59.345C463.948 59.843 463.312 60.092 462.537 60.092H440.127ZM462.498 60.092L463.079 55.693H485.406C486.181 55.693 486.734 55.9143 487.066 56.357C487.398 56.7443 487.564 57.2147 487.564 57.768C487.564 58.3213 487.315 58.847 486.817 59.345C486.319 59.843 485.683 60.092 484.908 60.092H462.498ZM484.869 60.092L485.45 55.693H507.777C508.552 55.693 509.105 55.9143 509.437 56.357C509.769 56.7443 509.935 57.2147 509.935 57.768C509.935 58.3213 509.686 58.847 509.188 59.345C508.69 59.843 508.054 60.092 507.279 60.092H484.869ZM507.24 60.092L507.821 55.693H530.148C530.923 55.693 531.476 55.9143 531.808 56.357C532.14 56.7443 532.306 57.2147 532.306 57.768C532.306 58.3213 532.057 58.847 531.559 59.345C531.061 59.843 530.425 60.092 529.65 60.092H507.24ZM529.611 60.092L530.192 55.693H552.519C553.294 55.693 553.847 55.9143 554.179 56.357C554.511 56.7443 554.677 57.2147 554.677 57.768C554.677 58.3213 554.428 58.847 553.93 59.345C553.432 59.843 552.796 60.092 552.021 60.092H529.611ZM551.982 60.092L552.563 55.693H574.89C575.665 55.693 576.218 55.9143 576.55 56.357C576.882 56.7443 577.048 57.2147 577.048 57.768C577.048 58.3213 576.799 58.847 576.301 59.345C575.803 59.843 575.167 60.092 574.392 60.092H551.982ZM580.33 59.926L576.263 58.183C577.701 55.029 579.168 51.6537 580.662 48.057C582.211 44.4603 583.705 40.753 585.144 36.935C586.638 33.117 588.021 29.299 589.294 25.481C590.622 21.663 591.811 17.9833 592.863 14.442C593.914 10.9007 594.744 7.60833 595.353 4.565L599.586 3.735L598.59 7.968C597.704 11.952 596.542 16.2403 595.104 20.833C593.72 25.4257 592.171 30.0737 590.456 34.777C588.796 39.4803 587.08 43.99 585.31 48.306C583.539 52.622 581.879 56.4953 580.33 59.926ZM614.443 60.175C613.059 57.021 611.676 53.6733 610.293 50.132C608.965 46.5907 607.609 42.994 606.226 39.342C604.898 35.6347 603.625 31.955 602.408 28.303C601.246 24.651 600.167 21.1373 599.171 17.762C598.175 14.3867 597.317 11.2603 596.598 8.383L595.602 4.814L599.586 3.735C600.36 6.99967 601.246 10.458 602.242 14.11C603.293 17.762 604.455 21.5247 605.728 25.398C607 29.216 608.328 33.0617 609.712 36.935C611.095 40.753 612.534 44.488 614.028 48.14C615.522 51.792 617.016 55.2503 618.51 58.515L614.443 60.175ZM640.977 82.004C638.431 80.2333 636.273 77.8817 634.503 74.949C632.787 72.0717 631.459 68.973 630.519 65.653C629.633 62.333 629.135 59.2067 629.025 56.274C628.361 57.3807 627.282 58.2937 625.788 59.013C624.294 59.7323 622.495 60.092 620.393 60.092L620.891 55.693C621.499 55.693 622.219 55.61 623.049 55.444C623.879 55.278 624.736 54.9183 625.622 54.365C626.562 53.8117 627.448 52.9263 628.278 51.709C629.108 50.4917 629.772 48.8317 630.27 46.729L634.005 47.642C633.285 49.966 632.898 52.456 632.843 55.112C632.843 57.7127 633.147 60.3133 633.756 62.914C634.364 65.5147 635.25 67.9493 636.412 70.218C637.629 72.542 639.068 74.5063 640.728 76.111C640.617 72.0163 641.032 68.4473 641.973 65.404C642.913 62.3607 644.601 59.9813 647.036 58.266C649.526 56.5507 652.873 55.693 657.079 55.693C657.798 55.693 658.324 55.9143 658.656 56.357C659.043 56.7443 659.237 57.2147 659.237 57.768C659.237 58.3213 658.988 58.847 658.49 59.345C657.992 59.843 657.383 60.092 656.664 60.092C653.399 60.092 650.826 60.7283 648.945 62.001C647.119 63.329 645.818 65.3763 645.044 68.143C644.324 70.965 644.048 74.617 644.214 79.099L640.977 82.004ZM656.543 60.092L657.124 55.693H679.451C680.226 55.693 680.779 55.9143 681.111 56.357C681.443 56.7443 681.609 57.2147 681.609 57.768C681.609 58.3213 681.36 58.847 680.862 59.345C680.364 59.843 679.728 60.092 678.953 60.092H656.543ZM678.914 60.092L679.495 55.693H701.822C702.597 55.693 703.15 55.9143 703.482 56.357C703.814 56.7443 703.98 57.2147 703.98 57.768C703.98 58.3213 703.731 58.847 703.233 59.345C702.735 59.843 702.099 60.092 701.324 60.092H678.914ZM701.285 60.092L701.866 55.693H724.193C724.968 55.693 725.521 55.9143 725.853 56.357C726.185 56.7443 726.351 57.2147 726.351 57.768C726.351 58.3213 726.102 58.847 725.604 59.345C725.106 59.843 724.47 60.092 723.695 60.092H701.285ZM723.656 60.092L724.237 55.693H746.564C747.339 55.693 747.892 55.9143 748.224 56.357C748.556 56.7443 748.722 57.2147 748.722 57.768C748.722 58.3213 748.473 58.847 747.975 59.345C747.477 59.843 746.841 60.092 746.066 60.092H723.656ZM746.027 60.092L746.608 55.693H768.935C769.71 55.693 770.263 55.9143 770.595 56.357C770.927 56.7443 771.093 57.2147 771.093 57.768C771.093 58.3213 770.844 58.847 770.346 59.345C769.848 59.843 769.212 60.092 768.437 60.092H746.027ZM768.398 60.092L768.979 55.693H791.306C792.081 55.693 792.634 55.9143 792.966 56.357C793.298 56.7443 793.464 57.2147 793.464 57.768C793.464 58.3213 793.215 58.847 792.717 59.345C792.219 59.843 791.583 60.092 790.808 60.092H768.398ZM790.77 60.092L791.351 55.693H813.678C814.452 55.693 815.006 55.9143 815.338 56.357C815.67 56.7443 815.836 57.2147 815.836 57.768C815.836 58.3213 815.587 58.847 815.089 59.345C814.591 59.843 813.954 60.092 813.18 60.092H790.77ZM813.141 60.092L813.722 55.693H836.049C836.823 55.693 837.377 55.9143 837.709 56.357C838.041 56.7443 838.207 57.2147 838.207 57.768C838.207 58.3213 837.958 58.847 837.46 59.345C836.962 59.843 836.325 60.092 835.551 60.092H813.141ZM835.512 60.092L836.093 55.693H858.42C859.194 55.693 859.748 55.9143 860.08 56.357C860.412 56.7443 860.578 57.2147 860.578 57.768C860.578 58.3213 860.329 58.847 859.831 59.345C859.333 59.843 858.696 60.092 857.922 60.092H835.512ZM857.883 60.092L858.464 55.693H880.791C881.565 55.693 882.119 55.9143 882.451 56.357C882.783 56.7443 882.949 57.2147 882.949 57.768C882.949 58.3213 882.7 58.847 882.202 59.345C881.704 59.843 881.067 60.092 880.293 60.092H857.883ZM880.254 60.092L880.835 55.693H903.162C903.937 55.693 904.49 55.9143 904.822 56.357C905.154 56.7443 905.32 57.2147 905.32 57.768C905.32 58.3213 905.071 58.847 904.573 59.345C904.075 59.843 903.439 60.092 902.664 60.092H880.254ZM902.625 60.092L903.206 55.693H925.533C926.308 55.693 926.861 55.9143 927.193 56.357C927.525 56.7443 927.691 57.2147 927.691 57.768C927.691 58.3213 927.442 58.847 926.944 59.345C926.446 59.843 925.81 60.092 925.035 60.092H902.625ZM924.996 60.092L925.577 55.693H947.904C948.679 55.693 949.232 55.9143 949.564 56.357C949.896 56.7443 950.062 57.2147 950.062 57.768C950.062 58.3213 949.813 58.847 949.315 59.345C948.817 59.843 948.181 60.092 947.406 60.092H924.996ZM947.367 60.092L947.948 55.693H970.275C971.05 55.693 971.603 55.9143 971.935 56.357C972.267 56.7443 972.433 57.2147 972.433 57.768C972.433 58.3213 972.184 58.847 971.686 59.345C971.188 59.843 970.552 60.092 969.777 60.092H947.367ZM969.738 60.092L970.319 55.693H992.646C993.421 55.693 993.974 55.9143 994.306 56.357C994.638 56.7443 994.804 57.2147 994.804 57.768C994.804 58.3213 994.555 58.847 994.057 59.345C993.559 59.843 992.923 60.092 992.148 60.092H969.738ZM992.109 60.092L992.69 55.693H1015.02C1015.79 55.693 1016.35 55.9143 1016.68 56.357C1017.01 56.7443 1017.18 57.2147 1017.18 57.768C1017.18 58.3213 1016.93 58.847 1016.43 59.345C1015.93 59.843 1015.29 60.092 1014.52 60.092H992.109ZM1014.48 60.092L1015.06 55.693H1037.39C1038.16 55.693 1038.72 55.9143 1039.05 56.357C1039.38 56.7443 1039.55 57.2147 1039.55 57.768C1039.55 58.3213 1039.3 58.847 1038.8 59.345C1038.3 59.843 1037.67 60.092 1036.89 60.092H1014.48ZM1036.85 60.092L1037.43 55.693H1059.76C1060.53 55.693 1061.09 55.9143 1061.42 56.357C1061.75 56.7443 1061.92 57.2147 1061.92 57.768C1061.92 58.3213 1061.67 58.847 1061.17 59.345C1060.67 59.843 1060.04 60.092 1059.26 60.092H1036.85ZM1065.2 59.926L1061.13 58.183C1062.57 55.029 1064.04 51.6537 1065.53 48.057C1067.08 44.4603 1068.57 40.753 1070.01 36.935C1071.51 33.117 1072.89 29.299 1074.16 25.481C1075.49 21.663 1076.68 17.9833 1077.73 14.442C1078.78 10.9007 1079.61 7.60833 1080.22 4.565L1084.45 3.735L1083.46 7.968C1082.57 11.952 1081.41 16.2403 1079.97 20.833C1078.59 25.4257 1077.04 30.0737 1075.32 34.777C1073.66 39.4803 1071.95 43.99 1070.18 48.306C1068.41 52.622 1066.75 56.4953 1065.2 59.926ZM1099.31 60.175C1097.93 57.021 1096.54 53.6733 1095.16 50.132C1093.83 46.5907 1092.48 42.994 1091.09 39.342C1089.77 35.6347 1088.49 31.955 1087.28 28.303C1086.11 24.651 1085.04 21.1373 1084.04 17.762C1083.04 14.3867 1082.19 11.2603 1081.47 8.383L1080.47 4.814L1084.45 3.735C1085.23 6.99967 1086.11 10.458 1087.11 14.11C1088.16 17.762 1089.32 21.5247 1090.6 25.398C1091.87 29.216 1093.2 33.0617 1094.58 36.935C1095.96 40.753 1097.4 44.488 1098.9 48.14C1100.39 51.792 1101.88 55.2503 1103.38 58.515L1099.31 60.175ZM1125.85 82.004C1123.3 80.2333 1121.14 77.8817 1119.37 74.949C1117.66 72.0717 1116.33 68.973 1115.39 65.653C1114.5 62.333 1114 59.2067 1113.89 56.274C1113.23 57.3807 1112.15 58.2937 1110.66 59.013C1109.16 59.7323 1107.36 60.092 1105.26 60.092L1105.76 55.693C1106.37 55.693 1107.09 55.61 1107.92 55.444C1108.75 55.278 1109.61 54.9183 1110.49 54.365C1111.43 53.8117 1112.32 52.9263 1113.15 51.709C1113.98 50.4917 1114.64 48.8317 1115.14 46.729L1118.87 47.642C1118.15 49.966 1117.77 52.456 1117.71 55.112C1117.71 57.7127 1118.02 60.3133 1118.62 62.914C1119.23 65.5147 1120.12 67.9493 1121.28 70.218C1122.5 72.542 1123.94 74.5063 1125.6 76.111C1125.49 72.0163 1125.9 68.4473 1126.84 65.404C1127.78 62.3607 1129.47 59.9813 1131.9 58.266C1134.39 56.5507 1137.74 55.693 1141.95 55.693C1142.67 55.693 1143.19 55.9143 1143.52 56.357C1143.91 56.7443 1144.11 57.2147 1144.11 57.768C1144.11 58.3213 1143.86 58.847 1143.36 59.345C1142.86 59.843 1142.25 60.092 1141.53 60.092C1138.27 60.092 1135.7 60.7283 1133.81 62.001C1131.99 63.329 1130.69 65.3763 1129.91 68.143C1129.19 70.965 1128.92 74.617 1129.08 79.099L1125.85 82.004ZM1141.41 60.092L1141.99 55.693H1164.32C1165.09 55.693 1165.65 55.9143 1165.98 56.357C1166.31 56.7443 1166.48 57.2147 1166.48 57.768C1166.48 58.3213 1166.23 58.847 1165.73 59.345C1165.23 59.843 1164.6 60.092 1163.82 60.092H1141.41ZM1163.78 60.092L1164.36 55.693H1186.69C1187.47 55.693 1188.02 55.9143 1188.35 56.357C1188.68 56.7443 1188.85 57.2147 1188.85 57.768C1188.85 58.3213 1188.6 58.847 1188.1 59.345C1187.6 59.843 1186.97 60.092 1186.19 60.092H1163.78ZM1186.15 60.092L1186.74 55.693H1209.06C1209.84 55.693 1210.39 55.9143 1210.72 56.357C1211.05 56.7443 1211.22 57.2147 1211.22 57.768C1211.22 58.3213 1210.97 58.847 1210.47 59.345C1209.98 59.843 1209.34 60.092 1208.56 60.092H1186.15ZM1208.53 60.092L1209.11 55.693H1231.43C1232.21 55.693 1232.76 55.9143 1233.09 56.357C1233.43 56.7443 1233.59 57.2147 1233.59 57.768C1233.59 58.3213 1233.34 58.847 1232.84 59.345C1232.35 59.843 1231.71 60.092 1230.94 60.092H1208.53ZM1230.9 60.092L1231.48 55.693H1253.8C1254.58 55.693 1255.13 55.9143 1255.46 56.357C1255.8 56.7443 1255.96 57.2147 1255.96 57.768C1255.96 58.3213 1255.71 58.847 1255.22 59.345C1254.72 59.843 1254.08 60.092 1253.31 60.092H1230.9ZM1253.27 60.092L1253.85 55.693H1276.18C1276.95 55.693 1277.5 55.9143 1277.84 56.357C1278.17 56.7443 1278.33 57.2147 1278.33 57.768C1278.33 58.3213 1278.08 58.847 1277.59 59.345C1277.09 59.843 1276.45 60.092 1275.68 60.092H1253.27ZM1275.64 60.092L1276.22 55.693H1298.55C1299.32 55.693 1299.87 55.9143 1300.21 56.357C1300.54 56.7443 1300.7 57.2147 1300.7 57.768C1300.7 58.3213 1300.46 58.847 1299.96 59.345C1299.46 59.843 1298.82 60.092 1298.05 60.092H1275.64ZM1298.01 60.092L1298.59 55.693H1320.92C1321.69 55.693 1322.25 55.9143 1322.58 56.357C1322.91 56.7443 1323.08 57.2147 1323.08 57.768C1323.08 58.3213 1322.83 58.847 1322.33 59.345C1321.83 59.843 1321.19 60.092 1320.42 60.092H1298.01ZM1320.38 60.092L1320.96 55.693H1343.29C1344.06 55.693 1344.62 55.9143 1344.95 56.357C1345.28 56.7443 1345.45 57.2147 1345.45 57.768C1345.45 58.3213 1345.2 58.847 1344.7 59.345C1344.2 59.843 1343.57 60.092 1342.79 60.092H1320.38ZM1342.75 60.092L1343.33 55.693H1365.66C1366.43 55.693 1366.99 55.9143 1367.32 56.357C1367.65 56.7443 1367.82 57.2147 1367.82 57.768C1367.82 58.3213 1367.57 58.847 1367.07 59.345C1366.57 59.843 1365.94 60.092 1365.16 60.092H1342.75ZM1371.1 59.926L1367.03 58.183C1368.47 55.029 1369.94 51.6537 1371.43 48.057C1372.98 44.4603 1374.47 40.753 1375.91 36.935C1377.41 33.117 1378.79 29.299 1380.06 25.481C1381.39 21.663 1382.58 17.9833 1383.63 14.442C1384.68 10.9007 1385.51 7.60833 1386.12 4.565L1390.36 3.735L1389.36 7.968C1388.47 11.952 1387.31 16.2403 1385.87 20.833C1384.49 25.4257 1382.94 30.0737 1381.23 34.777C1379.57 39.4803 1377.85 43.99 1376.08 48.306C1374.31 52.622 1372.65 56.4953 1371.1 59.926ZM1405.21 60.175C1403.83 57.021 1402.45 53.6733 1401.06 50.132C1399.73 46.5907 1398.38 42.994 1397 39.342C1395.67 35.6347 1394.39 31.955 1393.18 28.303C1392.02 24.651 1390.94 21.1373 1389.94 17.762C1388.94 14.3867 1388.09 11.2603 1387.37 8.383L1386.37 4.814L1390.36 3.735C1391.13 6.99967 1392.02 10.458 1393.01 14.11C1394.06 17.762 1395.22 21.5247 1396.5 25.398C1397.77 29.216 1399.1 33.0617 1400.48 36.935C1401.86 40.753 1403.3 44.488 1404.8 48.14C1406.29 51.792 1407.79 55.2503 1409.28 58.515L1405.21 60.175ZM1431.75 82.004C1429.2 80.2333 1427.04 77.8817 1425.27 74.949C1423.56 72.0717 1422.23 68.973 1421.29 65.653C1420.4 62.333 1419.9 59.2067 1419.79 56.274C1419.13 57.3807 1418.05 58.2937 1416.56 59.013C1415.06 59.7323 1413.26 60.092 1411.16 60.092L1411.66 55.693C1412.27 55.693 1412.99 55.61 1413.82 55.444C1414.65 55.278 1415.51 54.9183 1416.39 54.365C1417.33 53.8117 1418.22 52.9263 1419.05 51.709C1419.88 50.4917 1420.54 48.8317 1421.04 46.729L1424.77 47.642C1424.05 49.966 1423.67 52.456 1423.61 55.112C1423.61 57.7127 1423.92 60.3133 1424.53 62.914C1425.13 65.5147 1426.02 67.9493 1427.18 70.218C1428.4 72.542 1429.84 74.5063 1431.5 76.111C1431.39 72.0163 1431.8 68.4473 1432.74 65.404C1433.68 62.3607 1435.37 59.9813 1437.81 58.266C1440.3 56.5507 1443.64 55.693 1447.85 55.693C1448.57 55.693 1449.09 55.9143 1449.43 56.357C1449.81 56.7443 1450.01 57.2147 1450.01 57.768C1450.01 58.3213 1449.76 58.847 1449.26 59.345C1448.76 59.843 1448.15 60.092 1447.43 60.092C1444.17 60.092 1441.6 60.7283 1439.71 62.001C1437.89 63.329 1436.59 65.3763 1435.81 68.143C1435.09 70.965 1434.82 74.617 1434.98 79.099L1431.75 82.004ZM1467.9 82.004C1465.35 80.2333 1463.19 77.8817 1461.42 74.949C1459.71 72.0717 1458.38 68.973 1457.44 65.653C1456.55 62.333 1456.06 59.2067 1455.94 56.274C1455.28 57.3807 1454.2 58.2937 1452.71 59.013C1451.21 59.7323 1449.42 60.092 1447.31 60.092L1447.81 55.693C1448.42 55.693 1449.14 55.61 1449.97 55.444C1450.8 55.278 1451.66 54.9183 1452.54 54.365C1453.48 53.8117 1454.37 52.9263 1455.2 51.709C1456.03 50.4917 1456.69 48.8317 1457.19 46.729L1460.92 47.642C1460.21 49.966 1459.82 52.456 1459.76 55.112C1459.76 57.7127 1460.07 60.3133 1460.68 62.914C1461.28 65.5147 1462.17 67.9493 1463.33 70.218C1464.55 72.542 1465.99 74.5063 1467.65 76.111C1467.54 72.0163 1467.95 68.4473 1468.89 65.404C1469.83 62.3607 1471.52 59.9813 1473.96 58.266C1476.45 56.5507 1479.79 55.693 1484 55.693C1484.72 55.693 1485.24 55.9143 1485.58 56.357C1485.96 56.7443 1486.16 57.2147 1486.16 57.768C1486.16 58.3213 1485.91 58.847 1485.41 59.345C1484.91 59.843 1484.3 60.092 1483.58 60.092C1480.32 60.092 1477.75 60.7283 1475.86 62.001C1474.04 63.329 1472.74 65.3763 1471.96 68.143C1471.24 70.965 1470.97 74.617 1471.13 79.099L1467.9 82.004ZM1483.46 60.092L1484.04 55.693H1506.37C1507.15 55.693 1507.7 55.9143 1508.03 56.357C1508.36 56.7443 1508.53 57.2147 1508.53 57.768C1508.53 58.3213 1508.28 58.847 1507.78 59.345C1507.28 59.843 1506.65 60.092 1505.87 60.092H1483.46ZM1511.81 59.926L1507.74 58.183C1509.18 55.029 1510.65 51.6537 1512.14 48.057C1513.69 44.4603 1515.19 40.753 1516.62 36.935C1518.12 33.117 1519.5 29.299 1520.77 25.481C1522.1 21.663 1523.29 17.9833 1524.34 14.442C1525.39 10.9007 1526.22 7.60833 1526.83 4.565L1531.07 3.735L1530.07 7.968C1529.18 11.952 1528.02 16.2403 1526.58 20.833C1525.2 25.4257 1523.65 30.0737 1521.94 34.777C1520.28 39.4803 1518.56 43.99 1516.79 48.306C1515.02 52.622 1513.36 56.4953 1511.81 59.926ZM1545.92 60.175C1544.54 57.021 1543.16 53.6733 1541.77 50.132C1540.44 46.5907 1539.09 42.994 1537.71 39.342C1536.38 35.6347 1535.11 31.955 1533.89 28.303C1532.73 24.651 1531.65 21.1373 1530.65 17.762C1529.65 14.3867 1528.8 11.2603 1528.08 8.383L1527.08 4.814L1531.07 3.735C1531.84 6.99967 1532.73 10.458 1533.72 14.11C1534.77 17.762 1535.94 21.5247 1537.21 25.398C1538.48 29.216 1539.81 33.0617 1541.19 36.935C1542.58 40.753 1544.01 44.488 1545.51 48.14C1547 51.792 1548.5 55.2503 1549.99 58.515L1545.92 60.175ZM1572.46 82.004C1569.91 80.2333 1567.75 77.8817 1565.98 74.949C1564.27 72.0717 1562.94 68.973 1562 65.653C1561.11 62.333 1560.62 59.2067 1560.51 56.274C1559.84 57.3807 1558.76 58.2937 1557.27 59.013C1555.77 59.7323 1553.98 60.092 1551.87 60.092L1552.37 55.693C1552.98 55.693 1553.7 55.61 1554.53 55.444C1555.36 55.278 1556.22 54.9183 1557.1 54.365C1558.04 53.8117 1558.93 52.9263 1559.76 51.709C1560.59 50.4917 1561.25 48.8317 1561.75 46.729L1565.49 47.642C1564.77 49.966 1564.38 52.456 1564.32 55.112C1564.32 57.7127 1564.63 60.3133 1565.24 62.914C1565.84 65.5147 1566.73 67.9493 1567.89 70.218C1569.11 72.542 1570.55 74.5063 1572.21 76.111C1572.1 72.0163 1572.51 68.4473 1573.45 65.404C1574.39 62.3607 1576.08 59.9813 1578.52 58.266C1581.01 56.5507 1584.35 55.693 1588.56 55.693C1589.28 55.693 1589.8 55.9143 1590.14 56.357C1590.52 56.7443 1590.72 57.2147 1590.72 57.768C1590.72 58.3213 1590.47 58.847 1589.97 59.345C1589.47 59.843 1588.86 60.092 1588.14 60.092C1584.88 60.092 1582.31 60.7283 1580.43 62.001C1578.6 63.329 1577.3 65.3763 1576.52 68.143C1575.8 70.965 1575.53 74.617 1575.69 79.099L1572.46 82.004ZM1616.74 59.677C1616.02 57.851 1615.28 56.1633 1614.5 54.614C1613.78 53.0093 1612.87 51.294 1611.76 49.468C1610.65 47.642 1609.27 45.5117 1607.61 43.077C1605.95 40.6423 1603.85 37.682 1601.3 34.196C1598.04 29.714 1595.71 25.8683 1594.33 22.659C1592.95 19.4497 1592.26 16.3233 1592.26 13.28C1592.26 10.8453 1592.87 8.632 1594.08 6.64C1595.36 4.59266 1597.02 2.988 1599.06 1.826C1601.17 0.608666 1603.43 -1.49012e-06 1605.87 -1.49012e-06C1608.47 -1.49012e-06 1610.88 0.663998 1613.09 1.992C1615.36 3.32 1617.21 5.33967 1618.65 8.051C1620.14 5.33967 1622.03 3.32 1624.29 1.992C1626.56 0.663998 1629 -1.49012e-06 1631.6 -1.49012e-06C1633.98 -1.49012e-06 1636.19 0.608666 1638.24 1.826C1640.34 2.988 1642.03 4.59266 1643.3 6.64C1644.57 8.632 1645.21 10.8453 1645.21 13.28C1645.21 15.2167 1644.93 17.2087 1644.38 19.256C1643.88 21.248 1642.97 23.4613 1641.64 25.896C1640.31 28.2753 1638.49 31.0697 1636.16 34.279C1633.62 37.8203 1631.49 40.836 1629.77 43.326C1628.06 45.7607 1626.65 47.891 1625.54 49.717C1624.49 51.543 1623.58 53.2307 1622.8 54.78C1622.03 56.3293 1621.31 57.9617 1620.64 59.677H1616.74ZM1618.65 52.456C1619.7 50.3533 1621.11 47.9187 1622.88 45.152C1624.71 42.3853 1626.84 39.3143 1629.27 35.939C1631.71 32.5637 1633.7 29.6587 1635.25 27.224C1636.8 24.7893 1637.91 22.8527 1638.57 21.414C1639.9 18.4813 1640.56 15.77 1640.56 13.28C1640.56 11.6753 1640.15 10.2367 1639.32 8.964C1638.49 7.636 1637.38 6.58466 1636 5.81C1634.67 5.03533 1633.2 4.648 1631.6 4.648C1629.22 4.648 1627.06 5.644 1625.12 7.636C1623.19 9.57267 1621.75 12.2563 1620.81 15.687H1616.58C1615.52 11.9243 1614.03 9.15766 1612.09 7.387C1610.21 5.561 1608.14 4.648 1605.87 4.648C1604.32 4.648 1602.85 5.03533 1601.47 5.81C1600.09 6.58466 1598.98 7.636 1598.15 8.964C1597.32 10.2367 1596.9 11.6753 1596.9 13.28C1596.9 15.604 1597.54 18.26 1598.81 21.248C1600.03 24.07 1603.07 28.801 1607.94 35.441C1610.38 38.6503 1612.48 41.6937 1614.25 44.571C1616.02 47.393 1617.49 50.0213 1618.65 52.456ZM1649.46 60.092L1650.04 55.693H1672.37C1673.15 55.693 1673.7 55.9143 1674.03 56.357C1674.36 56.7443 1674.53 57.2147 1674.53 57.768C1674.53 58.3213 1674.28 58.847 1673.78 59.345C1673.28 59.843 1672.65 60.092 1671.87 60.092H1649.46ZM1677.81 59.926L1673.74 58.183C1675.18 55.029 1676.65 51.6537 1678.14 48.057C1679.69 44.4603 1681.19 40.753 1682.62 36.935C1684.12 33.117 1685.5 29.299 1686.77 25.481C1688.1 21.663 1689.29 17.9833 1690.34 14.442C1691.39 10.9007 1692.22 7.60833 1692.83 4.565L1697.07 3.735L1696.07 7.968C1695.18 11.952 1694.02 16.2403 1692.58 20.833C1691.2 25.4257 1689.65 30.0737 1687.94 34.777C1686.28 39.4803 1684.56 43.99 1682.79 48.306C1681.02 52.622 1679.36 56.4953 1677.81 59.926ZM1711.92 60.175C1710.54 57.021 1709.16 53.6733 1707.77 50.132C1706.44 46.5907 1705.09 42.994 1703.71 39.342C1702.38 35.6347 1701.11 31.955 1699.89 28.303C1698.73 24.651 1697.65 21.1373 1696.65 17.762C1695.65 14.3867 1694.8 11.2603 1694.08 8.383L1693.08 4.814L1697.07 3.735C1697.84 6.99967 1698.73 10.458 1699.72 14.11C1700.77 17.762 1701.94 21.5247 1703.21 25.398C1704.48 29.216 1705.81 33.0617 1707.19 36.935C1708.58 40.753 1710.01 44.488 1711.51 48.14C1713 51.792 1714.5 55.2503 1715.99 58.515L1711.92 60.175ZM1738.46 82.004C1735.91 80.2333 1733.75 77.8817 1731.98 74.949C1730.27 72.0717 1728.94 68.973 1728 65.653C1727.11 62.333 1726.62 59.2067 1726.51 56.274C1725.84 57.3807 1724.76 58.2937 1723.27 59.013C1721.77 59.7323 1719.98 60.092 1717.87 60.092L1718.37 55.693C1718.98 55.693 1719.7 55.61 1720.53 55.444C1721.36 55.278 1722.22 54.9183 1723.1 54.365C1724.04 53.8117 1724.93 52.9263 1725.76 51.709C1726.59 50.4917 1727.25 48.8317 1727.75 46.729L1731.49 47.642C1730.77 49.966 1730.38 52.456 1730.32 55.112C1730.32 57.7127 1730.63 60.3133 1731.24 62.914C1731.84 65.5147 1732.73 67.9493 1733.89 70.218C1735.11 72.542 1736.55 74.5063 1738.21 76.111C1738.1 72.0163 1738.51 68.4473 1739.45 65.404C1740.39 62.3607 1742.08 59.9813 1744.52 58.266C1747.01 56.5507 1750.35 55.693 1754.56 55.693C1755.28 55.693 1755.8 55.9143 1756.14 56.357C1756.52 56.7443 1756.72 57.2147 1756.72 57.768C1756.72 58.3213 1756.47 58.847 1755.97 59.345C1755.47 59.843 1754.86 60.092 1754.14 60.092C1750.88 60.092 1748.31 60.7283 1746.43 62.001C1744.6 63.329 1743.3 65.3763 1742.52 68.143C1741.8 70.965 1741.53 74.617 1741.69 79.099L1738.46 82.004ZM1774.61 82.004C1772.06 80.2333 1769.9 77.8817 1768.13 74.949C1766.42 72.0717 1765.09 68.973 1764.15 65.653C1763.26 62.333 1762.77 59.2067 1762.66 56.274C1761.99 57.3807 1760.91 58.2937 1759.42 59.013C1757.92 59.7323 1756.13 60.092 1754.02 60.092L1754.52 55.693C1755.13 55.693 1755.85 55.61 1756.68 55.444C1757.51 55.278 1758.37 54.9183 1759.25 54.365C1760.19 53.8117 1761.08 52.9263 1761.91 51.709C1762.74 50.4917 1763.4 48.8317 1763.9 46.729L1767.64 47.642C1766.92 49.966 1766.53 52.456 1766.47 55.112C1766.47 57.7127 1766.78 60.3133 1767.39 62.914C1768 65.5147 1768.88 67.9493 1770.04 70.218C1771.26 72.542 1772.7 74.5063 1774.36 76.111C1774.25 72.0163 1774.66 68.4473 1775.6 65.404C1776.54 62.3607 1778.23 59.9813 1780.67 58.266C1783.16 56.5507 1786.5 55.693 1790.71 55.693C1791.43 55.693 1791.95 55.9143 1792.29 56.357C1792.67 56.7443 1792.87 57.2147 1792.87 57.768C1792.87 58.3213 1792.62 58.847 1792.12 59.345C1791.62 59.843 1791.01 60.092 1790.29 60.092C1787.03 60.092 1784.46 60.7283 1782.58 62.001C1780.75 63.329 1779.45 65.3763 1778.67 68.143C1777.96 70.965 1777.68 74.617 1777.84 79.099L1774.61 82.004ZM1790.17 60.092L1790.75 55.693H1813.08C1813.86 55.693 1814.41 55.9143 1814.74 56.357C1815.07 56.7443 1815.24 57.2147 1815.24 57.768C1815.24 58.3213 1814.99 58.847 1814.49 59.345C1813.99 59.843 1813.36 60.092 1812.58 60.092H1790.17ZM1818.52 59.926L1814.45 58.183C1815.89 55.029 1817.36 51.6537 1818.85 48.057C1820.4 44.4603 1821.9 40.753 1823.33 36.935C1824.83 33.117 1826.21 29.299 1827.48 25.481C1828.81 21.663 1830 17.9833 1831.05 14.442C1832.11 10.9007 1832.94 7.60833 1833.54 4.565L1837.78 3.735L1836.78 7.968C1835.9 11.952 1834.73 16.2403 1833.29 20.833C1831.91 25.4257 1830.36 30.0737 1828.65 34.777C1826.99 39.4803 1825.27 43.99 1823.5 48.306C1821.73 52.622 1820.07 56.4953 1818.52 59.926ZM1852.63 60.175C1851.25 57.021 1849.87 53.6733 1848.48 50.132C1847.16 46.5907 1845.8 42.994 1844.42 39.342C1843.09 35.6347 1841.82 31.955 1840.6 28.303C1839.44 24.651 1838.36 21.1373 1837.36 17.762C1836.37 14.3867 1835.51 11.2603 1834.79 8.383L1833.79 4.814L1837.78 3.735C1838.55 6.99967 1839.44 10.458 1840.43 14.11C1841.48 17.762 1842.65 21.5247 1843.92 25.398C1845.19 29.216 1846.52 33.0617 1847.9 36.935C1849.29 40.753 1850.72 44.488 1852.22 48.14C1853.71 51.792 1855.21 55.2503 1856.7 58.515L1852.63 60.175ZM1879.17 82.004C1876.62 80.2333 1874.46 77.8817 1872.69 74.949C1870.98 72.0717 1869.65 68.973 1868.71 65.653C1867.82 62.333 1867.33 59.2067 1867.22 56.274C1866.55 57.3807 1865.47 58.2937 1863.98 59.013C1862.48 59.7323 1860.69 60.092 1858.58 60.092L1859.08 55.693C1859.69 55.693 1860.41 55.61 1861.24 55.444C1862.07 55.278 1862.93 54.9183 1863.81 54.365C1864.75 53.8117 1865.64 52.9263 1866.47 51.709C1867.3 50.4917 1867.96 48.8317 1868.46 46.729L1872.2 47.642C1871.48 49.966 1871.09 52.456 1871.03 55.112C1871.03 57.7127 1871.34 60.3133 1871.95 62.914C1872.56 65.5147 1873.44 67.9493 1874.6 70.218C1875.82 72.542 1877.26 74.5063 1878.92 76.111C1878.81 72.0163 1879.22 68.4473 1880.16 65.404C1881.1 62.3607 1882.79 59.9813 1885.23 58.266C1887.72 56.5507 1891.06 55.693 1895.27 55.693C1895.99 55.693 1896.51 55.9143 1896.85 56.357C1897.23 56.7443 1897.43 57.2147 1897.43 57.768C1897.43 58.3213 1897.18 58.847 1896.68 59.345C1896.18 59.843 1895.57 60.092 1894.85 60.092C1891.59 60.092 1889.02 60.7283 1887.14 62.001C1885.31 63.329 1884.01 65.3763 1883.23 68.143C1882.52 70.965 1882.24 74.617 1882.4 79.099L1879.17 82.004Z" fill="#777777"/>
</svg>
